<svg xmlns="http://www.w3.org/2000/svg" xmlns:xlink="http://www.w3.org/1999/xlink" viewBox="0 0 75.3 179.25"><defs><style>.cls-1,.cls-5{fill:none;}.cls-2{fill:#0e995d;}.cls-3{fill:url(#新規パターンスウォッチ_4);}.cls-4{fill:#fefdf0;}.cls-5{stroke:#fefcf0;stroke-width:3px;}</style><pattern id="新規パターンスウォッチ_4" data-name="新規パターンスウォッチ 4" width="62.64" height="62.64" patternTransform="translate(14.9 26.2) scale(0.86)" patternUnits="userSpaceOnUse" viewBox="0 0 62.64 62.64"><rect class="cls-1" width="62.64" height="62.64"/><rect class="cls-2" width="62.64" height="62.64"/></pattern></defs><g id="レイヤー_2" data-name="レイヤー 2"><g id="レイヤー_1-2" data-name="レイヤー 1"><path class="cls-3" d="M0,179.25V37.65a37.65,37.65,0,0,1,75.3,0v141.6Z"/><path class="cls-4" d="M64.15,27.79h-1a7.21,7.21,0,0,0-5.33,2.35L40.38,49.27a7.6,7.6,0,0,1-2.51,2.17,7.6,7.6,0,0,1-2.51-2.17L18,30.14a7.23,7.23,0,0,0-5.34-2.35h-1a4.26,4.26,0,0,0-4.26,4.26V58.22c0,1.37.49,2.49,1.87,2.49h.71c1.59,0,2-1.11,2-2.88V35.57a2,2,0,0,1,3.42-1.32L34.39,55.37a1.83,1.83,0,0,0,1.33.59H40a1.79,1.79,0,0,0,1.32-.59L60.4,34.25a2,2,0,0,1,3.43,1.32V57.83c0,1.77.41,2.88,2,2.88h.71c1.38,0,1.86-1.12,1.86-2.49V32.05A4.25,4.25,0,0,0,64.15,27.79Z"/><path class="cls-5" d="M64.15,27.79h-1a7.21,7.21,0,0,0-5.33,2.35L40.38,49.27a7.6,7.6,0,0,1-2.51,2.17,7.6,7.6,0,0,1-2.51-2.17L18,30.14a7.23,7.23,0,0,0-5.34-2.35h-1a4.26,4.26,0,0,0-4.26,4.26V58.22c0,1.37.49,2.49,1.87,2.49h.71c1.59,0,2-1.11,2-2.88V35.57a2,2,0,0,1,3.42-1.32L34.39,55.37a1.83,1.83,0,0,0,1.33.59H40a1.79,1.79,0,0,0,1.32-.59L60.4,34.25a2,2,0,0,1,3.43,1.32V57.83c0,1.77.41,2.88,2,2.88h.71c1.38,0,1.86-1.12,1.86-2.49V32.05A4.25,4.25,0,0,0,64.15,27.79Z"/><path class="cls-4" d="M26.22,138.3h23.3c6.51,0,12.62.77,12.62,3.21l0,1.94a1.44,1.44,0,0,0,1.4,1.4l2.47.08a1.45,1.45,0,0,0,1.49-1.45V142c0-4.46-5.63-6.58-17.53-6.58H25.72c-11.9,0-17.53,2.12-17.53,6.58v3.44c0,4.72,7.57,5.79,16.78,6.61v.07l24.55,2.11c6.13.52,13.11,1.32,13.11,3.81v3.34c0,2.45-6.6,3.39-13.11,3.39H26.22c-6.51,0-12.62-.77-12.62-3.22l0-1.93a1.45,1.45,0,0,0-1.4-1.41l-2.47-.07a1.43,1.43,0,0,0-1.49,1.44v1.52c0,4.47,5.63,6.58,17.53,6.58H50c11.9,0,17.53-2.11,17.53-6.58v-3.43c0-4.73-7.57-5.79-16.78-6.62V151l-24.55-2.12c-6.13-.52-13.11-1.32-13.11-3.81v-3.34C13.11,139.24,19.71,138.3,26.22,138.3Z"/><path class="cls-5" d="M26.22,138.3h23.3c6.51,0,12.62.77,12.62,3.21l0,1.94a1.44,1.44,0,0,0,1.4,1.4l2.47.08a1.45,1.45,0,0,0,1.49-1.45V142c0-4.46-5.63-6.58-17.53-6.58H25.72c-11.9,0-17.53,2.12-17.53,6.58v3.44c0,4.72,7.57,5.79,16.78,6.61v.07l24.55,2.11c6.13.52,13.11,1.32,13.11,3.81v3.34c0,2.45-6.6,3.39-13.11,3.39H26.22c-6.51,0-12.62-.77-12.62-3.22l0-1.93a1.45,1.45,0,0,0-1.4-1.41l-2.47-.07a1.43,1.43,0,0,0-1.49,1.44v1.52c0,4.47,5.63,6.58,17.53,6.58H50c11.9,0,17.53-2.11,17.53-6.58v-3.43c0-4.73-7.57-5.79-16.78-6.62V151l-24.55-2.12c-6.13-.52-13.11-1.32-13.11-3.81v-3.34C13.11,139.24,19.71,138.3,26.22,138.3Z"/><path class="cls-4" d="M64.22,89.83h2.69a1.4,1.4,0,0,0,1.39-1.4V86.24c0-4.46-5.61-6.58-17.46-6.58H24.9c-11.85,0-17.46,2.12-17.46,6.58V106c0,4.28,5.61,6.59,17.46,6.59H50.84c11.85,0,17.46-2.31,17.46-6.59v-2.17a1.4,1.4,0,0,0-1.4-1.4H63.63a1.4,1.4,0,0,0-1.4,1.4v2.27c0,2.44-5.4,3.39-11.89,3.39H25.4c-6.49,0-12.45-1-12.45-3.39V88.15A4.21,4.21,0,0,1,16.1,84a43.1,43.1,0,0,1,9.3-.65H50.34c6.49,0,11.89.31,12.48,4v1A1.4,1.4,0,0,0,64.22,89.83Z"/><path class="cls-5" d="M64.22,89.83h2.69a1.4,1.4,0,0,0,1.39-1.4V86.24c0-4.46-5.61-6.58-17.46-6.58H24.9c-11.85,0-17.46,2.12-17.46,6.58V106c0,4.28,5.61,6.59,17.46,6.59H50.84c11.85,0,17.46-2.31,17.46-6.59v-2.17a1.4,1.4,0,0,0-1.4-1.4H63.63a1.4,1.4,0,0,0-1.4,1.4v2.27c0,2.44-5.4,3.39-11.89,3.39H25.4c-6.49,0-12.45-1-12.45-3.39V88.15A4.21,4.21,0,0,1,16.1,84a43.1,43.1,0,0,1,9.3-.65H50.34c6.49,0,11.89.31,12.48,4v1A1.4,1.4,0,0,0,64.22,89.83Z"/></g></g></svg>