<svg xmlns="http://www.w3.org/2000/svg" viewBox="0 0 701 595"><defs><style>.cls-1,.cls-10,.cls-11,.cls-12,.cls-2,.cls-3,.cls-7{fill:none;}.cls-1,.cls-2,.cls-3,.cls-7{stroke:#b3b3b3;}.cls-1,.cls-10,.cls-2,.cls-7{stroke-linecap:round;}.cls-1,.cls-10,.cls-11,.cls-12,.cls-14,.cls-2,.cls-3,.cls-7{stroke-miterlimit:10;}.cls-1{stroke-width:30px;}.cls-2,.cls-3{stroke-width:19px;}.cls-4{fill:#f7931e;}.cls-5{font-size:19px;}.cls-5,.cls-9{fill:#fff;font-family:NotoMono, Noto Mono;}.cls-6{font-family:KozGoPr6N-Regular-90ms-RKSJ-H, Kozuka Gothic Pr6N;}.cls-11,.cls-12,.cls-7{stroke-width:15px;}.cls-8{fill:#006837;}.cls-9{font-size:18px;}.cls-10,.cls-14{stroke:#000;}.cls-10{stroke-width:21px;}.cls-11,.cls-12{stroke:#fff;}.cls-12{stroke-dasharray:19.67 9.84;}.cls-13{font-size:29px;}.cls-13,.cls-15{font-family:MS-UIGothic, MS UI Gothic;}.cls-14{fill:#e6e6e6;}.cls-15{font-size:14px;}</style></defs><g id="レイヤー_2" data-name="レイヤー 2"><g id="レイヤー_1-2" data-name="レイヤー 1"><line class="cls-1" x1="251.5" y1="17" x2="251.5" y2="567.5"/><line class="cls-1" x1="485.5" y1="17" x2="485.5" y2="567.5"/><line class="cls-2" x1="14.5" y1="131.5" x2="245.5" y2="131.5"/><line class="cls-3" x1="247.5" y1="130.5" x2="485.5" y2="168.5"/><line class="cls-2" x1="485.5" y1="170.5" x2="687.5" y2="292.5"/><line class="cls-3" x1="100.5" y1="131.5" x2="243.5" y2="262.5"/><rect class="cls-4" x="142" y="470" width="91" height="32"/><text class="cls-5" transform="translate(149.02 490.92)">A6c<tspan class="cls-6" x="38.96" y="0.44">出口</tspan></text><line class="cls-7" x1="14.5" y1="419.5" x2="385" y2="420"/><line class="cls-7" x1="386" y1="420.5" x2="386" y2="568"/><polygon class="cls-8" points="233.5 127.57 239.36 139.44 252.46 141.34 242.98 150.58 245.22 163.62 233.5 157.47 221.78 163.62 224.02 150.58 214.54 141.34 227.64 139.44 233.5 127.57"/><rect class="cls-8" x="129" y="99" width="206" height="31"/><text class="cls-9" transform="translate(135.96 120.32)">mid-century studio</text><line class="cls-10" x1="366.5" y1="10.5" x2="366.5" y2="571.5"/><line class="cls-11" x1="366.5" y1="10.5" x2="366.5" y2="20.5"/><line class="cls-12" x1="366.5" y1="30.34" x2="366.5" y2="556.58"/><line class="cls-11" x1="366.5" y1="561.5" x2="366.5" y2="571.5"/><line class="cls-1" x1="15" y1="567" x2="686" y2="567"/><rect class="cls-4" x="284" y="549" width="170" height="46"/><text class="cls-13" transform="translate(325.5 582.48)">渋谷駅</text><rect class="cls-14" x="433.5" y="163.51" width="29" height="113"/><text class="cls-15" transform="translate(442.94 166.12) rotate(90)">MIYASHITA PARK</text></g></g></svg>