<?xml version="1.0" encoding="UTF-8"?><svg id="_레이어_2" xmlns="http://www.w3.org/2000/svg" xmlns:xlink="http://www.w3.org/1999/xlink" viewBox="0 0 252.82 253.82"><defs><style>.cls-1,.cls-2{fill:none;}.cls-3{clip-path:url(#clippath);}.cls-4,.cls-5{fill:#fefdf0;}.cls-6{fill:#efea3a;}.cls-7{fill:#0e995d;}.cls-8{fill:url(#_新規パターンスウォッチ_4);}.cls-9{fill:url(#_新規パターンスウォッチ_4-4);}.cls-10{fill:url(#_新規パターンスウォッチ_4-3);}.cls-2{stroke:url(#_新規パターンスウォッチ_2);stroke-width:1.68px;}.cls-5{stroke:url(#_新規パターンスウォッチ_4-2);stroke-miterlimit:10;stroke-width:1.73px;}</style><pattern id="_新規パターンスウォッチ_4" x="0" y="0" width="62.64" height="62.64" patternTransform="translate(-1547.08 -1246.05) scale(.88)" patternUnits="userSpaceOnUse" viewBox="0 0 62.64 62.64"><g><rect class="cls-1" width="62.64" height="62.64"/><rect class="cls-7" width="62.64" height="62.64"/></g></pattern><pattern id="_新規パターンスウォッチ_2" x="0" y="0" width="62.64" height="62.64" patternTransform="translate(-1834.14 -1556.58) scale(.84)" patternUnits="userSpaceOnUse" viewBox="0 0 62.64 62.64"><g><rect class="cls-1" width="62.64" height="62.64"/><rect class="cls-6" x="0" width="62.64" height="62.64"/></g></pattern><pattern id="_新規パターンスウォッチ_4-2" patternTransform="translate(-1720.13 -1380.95) scale(.86)" xlink:href="#_新規パターンスウォッチ_4"/><clipPath id="clippath"><path class="cls-1" d="M12.9,125.09V19.96C46.81-18.62,89.79,4.89,89.79,38.44V125.09H12.9Z"/></clipPath><pattern id="_新規パターンスウォッチ_4-3" patternTransform="translate(-1562.79 -1165.18) scale(.89)" xlink:href="#_新規パターンスウォッチ_4"/><pattern id="_新規パターンスウォッチ_4-4" patternTransform="translate(-1560.72 -1162.14) scale(.89)" xlink:href="#_新規パターンスウォッチ_4"/></defs><g id="_レイヤー_1"><g><g><path class="cls-8" d="M1.71,2.32H251.5V252.49H1.32V2.7c0-.21,.17-.38,.38-.38Z"/><path class="cls-7" d="M252.82,253.82H0V2.7C0,1.76,.76,.99,1.71,.99H252.82V253.82ZM2.65,251.17H250.18V3.64H2.65V251.17Z"/></g><polygon class="cls-4" points="250.18 251.17 2.63 250.75 14.2 129.04 88.14 128.56 250.18 251.17"/><g><g><path class="cls-6" d="M238.08,11.12l-1.39-.08c-2.72-.15-5.27,1.1-7.04,3.42l-20.87,27.35c-.9,1.17-1.75,2.42-2.78,2.76-1.03-.69-1.88-2.22-2.77-3.67l-17.98-29.45c-1.32-2.17-3.16-3.45-5.05-3.56l-.94-.05c-2.14-.12-3.82,2.34-3.79,5.5l.36,34.95c.02,1.83,.47,3.4,1.7,3.68l.64,.14c1.45,.32,1.81-1.09,1.79-3.47l-.3-30.18c-.02-2.45,2.02-3.44,3.17-1.51l19.43,32.71c.37,.62,.89,1.04,1.44,1.15l.77,.15,3.18,.63,.79,.16c.57,.11,1.11-.1,1.49-.59l23.16-29.76c1.59-2.05,4.59-.39,4.6,2.58l.12,36.66c0,2.89,.58,4.83,2.75,5.32l.98,.22c1.91,.42,2.59-1.28,2.59-3.58l-.11-43.95c0-3.97-2.69-7.34-5.93-7.52Z"/><path class="cls-6" d="M195.45,155.01l25.32,14.45c7.91,4.51,15.7,10.17,15.72,14l.08,3.07c.03,1.21,.84,2.66,1.84,3.3l5.32,3.4v-4.81c-.03-7.15-7.56-14.73-22.39-22.98l-26.42-14.71c-11.36-6.33-16.4-6.41-16.34-.64l.04,4.43c.06,6.09,6.92,11.79,15.74,18.49v.09s26.53,20.03,26.53,20.03c7.42,5.59,16.31,12.6,16.32,16.49l.02,5.2c.01,3.8-8.39-.59-16.26-6.08l-25.23-17.59c-6.33-4.42-12.03-9.39-12.06-12.59l-.07-2.56c-.03-1.01-.59-2.19-1.29-2.68l-2.22-1.58c-.72-.51-1.31-.07-1.3,.98l.02,1.95c.06,5.73,5.14,12.04,16.45,20.09l26.31,18.71c14.75,10.49,22.22,12.46,22.21,5.38v-5.45c-.03-7.51-10.04-15.57-21.44-24.05v-.1s-26.79-19.8-26.79-19.8c-5.99-4.41-12.51-9.49-12.54-12.76l-.04-4.38c-.03-3.21,6.11-.93,12.47,2.7Z"/><path class="cls-6" d="M239.97,110.75l3.78,1.34c1.1,.39,1.99-.35,1.99-1.65v-3.7c-.03-7.58-7.95-13.61-23.49-18.39l-29.34-9.01c-11.64-3.57-16.79-2.31-16.72,3.71l.27,26.52c.06,5.73,5.25,11.25,16.84,16.74l29.21,13.83c15.45,7.32,23.32,7.17,23.3-.02v-3.66c-.01-1.3-.91-2.73-2.01-3.2l-4.6-1.94c-1.06-.45-1.92,.22-1.91,1.48v3.73c.02,4.01-7.18,2.25-15.42-1.52l-28.09-12.86c-6.49-2.97-12.21-6.87-12.25-10.2l-.24-24.53c-.03-2.64,1.17-4.59,2.94-4.65,2.18-.07,5.4,.86,9.23,2.1l28.19,9.19c8.28,2.7,15.52,5.58,16.36,11.98v1.71c0,1.28,.88,2.63,1.95,3.01Z"/></g><g><path class="cls-2" d="M238.08,11.12l-1.39-.08c-2.72-.15-5.27,1.1-7.04,3.42l-20.87,27.35c-.9,1.17-1.75,2.42-2.78,2.76-1.03-.69-1.88-2.22-2.77-3.67l-17.98-29.45c-1.32-2.17-3.16-3.45-5.05-3.56l-.94-.05c-2.14-.12-3.82,2.34-3.79,5.5l.36,34.95c.02,1.83,.47,3.4,1.7,3.68l.64,.14c1.45,.32,1.81-1.09,1.79-3.47l-.3-30.18c-.02-2.45,2.02-3.44,3.17-1.51l19.43,32.71c.37,.62,.89,1.04,1.44,1.15l.77,.15,3.18,.63,.79,.16c.57,.11,1.11-.1,1.49-.59l23.16-29.76c1.59-2.05,4.59-.39,4.6,2.58l.12,36.66c0,2.89,.58,4.83,2.75,5.32l.98,.22c1.91,.42,2.59-1.28,2.59-3.58l-.11-43.95c0-3.97-2.69-7.34-5.93-7.52Z"/><path class="cls-2" d="M195.45,155.01l25.32,14.45c7.91,4.51,15.7,10.17,15.72,14l.08,3.07c.03,1.21,.84,2.66,1.84,3.3l5.32,3.4v-4.81c-.03-7.15-7.56-14.73-22.39-22.98l-26.42-14.71c-11.36-6.33-16.4-6.41-16.34-.64l.04,4.43c.06,6.09,6.92,11.79,15.74,18.49v.09s26.53,20.03,26.53,20.03c7.42,5.59,16.31,12.6,16.32,16.49l.02,5.2c.01,3.8-8.39-.59-16.26-6.08l-25.23-17.59c-6.33-4.42-12.03-9.39-12.06-12.59l-.07-2.56c-.03-1.01-.59-2.19-1.29-2.68l-2.22-1.58c-.72-.51-1.31-.07-1.3,.98l.02,1.95c.06,5.73,5.14,12.04,16.45,20.09l26.31,18.71c14.75,10.49,22.22,12.46,22.21,5.38v-5.45c-.03-7.51-10.04-15.57-21.44-24.05v-.1s-26.79-19.8-26.79-19.8c-5.99-4.41-12.51-9.49-12.54-12.76l-.04-4.38c-.03-3.21,6.11-.93,12.47,2.7Z"/><path class="cls-2" d="M239.97,110.75l3.78,1.34c1.1,.39,1.99-.35,1.99-1.65v-3.7c-.03-7.58-7.95-13.61-23.49-18.39l-29.34-9.01c-11.64-3.57-16.79-2.31-16.72,3.71l.27,26.52c.06,5.73,5.25,11.25,16.84,16.74l29.21,13.83c15.45,7.32,23.32,7.17,23.3-.02v-3.66c-.01-1.3-.91-2.73-2.01-3.2l-4.6-1.94c-1.06-.45-1.92,.22-1.91,1.48v3.73c.02,4.01-7.18,2.25-15.42-1.52l-28.09-12.86c-6.49-2.97-12.21-6.87-12.25-10.2l-.24-24.53c-.03-2.64,1.17-4.59,2.94-4.65,2.18-.07,5.4,.86,9.23,2.1l28.19,9.19c8.28,2.7,15.52,5.58,16.36,11.98v1.71c0,1.28,.88,2.63,1.95,3.01Z"/></g></g><path class="cls-5" d="M13.69,127.48V42.63C13.69,21.83,30.55,4.98,51.34,4.98s37.65,16.86,37.65,37.65V127.48H13.69Z"/><g class="cls-3"><g><path class="cls-10" d="M84.26,84.71c.45-7.43-2.45-14.57-2.21-22h-.88c.05,.77,.13,1.53,.19,2.3,.02,.2,.13,.37,.32,.43,4.26,1.27,8.56,2.42,12.76,3.88,.84,.29,1.72,.57,2.46,1.08,1,.68,1.73,1.79,1.97,2.98,.35,1.68,.32,3.52,.33,5.23,.02,1.92-.02,3.84-.02,5.76,0,1.2-.07,2.38-.19,3.57-.06,.64-.08,1.28-.09,1.92,0,.34,.03,.62-.1,.93l-.25,.61,.31-.31c-.98,.23-2,.29-3,.4-1.36,.16-2.73,.31-4.09,.45-2.82,.31-5.64,.6-8.46,.88-5.62,.56-11.25,1.1-16.88,1.57-2.4,.2-4.8,.4-7.21,.56l.44,.44c-.06-2.78-.12-5.57-.19-8.35l-.44,.44c8.21-.96,16.45-1.62,24.67-2.46,.25-.03,.55-.27,.43-.56l-.03-.07-.54,.54c2.61,.85,5.24,1.64,7.83,2.53,1.63,.56,3.31,1.15,4.74,2.14,2.46,1.7,2.84,4.67,2.99,7.45,.16,2.94,.08,5.88,.04,8.82,0,.18,.14,.39,.32,.43,.99,.19,1.95-.2,2.86-.53,.38-.14,.63-.33,.65-.73,.03-.65-.05-1.33-.08-1.98-.1-2.64-.21-5.28-.26-7.92s-.06-5.27,.06-7.9c.1-2.27,.25-4.53,.23-6.8-.04-3.49-.25-6.98-.61-10.45-.08-.79-.15-1.45-.75-2.05-1.22-1.22-3.22-1.71-4.82-2.2-4.93-1.49-9.86-3.16-14.94-4.04-.28-.05-.56,.12-.56,.43v1.84c.28-.04,.57-.08,.86-.12-.17-.97,.14-2.35-.72-3.07-.36-.3-.76-.3-1.2-.24-.89,.12-1.78,.24-2.67,.35-3.19,.4-6.39,.7-9.59,.85-1.58,.07-3.17,.11-4.76,.11s-3.16-.19-4.72-.12c-1.37,.06-2.7-.09-4.06-.22-.94-.09-1.96-.2-2.88,.09-2.16,.68-1.45,3.26-.87,4.83,.19,.52,1.02,.31,.85-.23l-.58-1.83c-.06-.2-.22-.31-.43-.32-.8-.05-1.62,.11-2.37,.38-.29,.1-.46,.5-.19,.74,2.37,2.07,5.41,3.21,7.86,5.17,1.03,.82,2.12,1.87,2.37,3.23,.13,.72,.05,1.51,.06,2.25,.01,.89,.03,1.77,.06,2.66,.19,7.14,.67,14.28,.48,21.43-.05,1.77-.13,3.54-.28,5.31-.07,.88-.16,1.76-.25,2.64-.05,.4-.09,.8-.15,1.2-.05,.36-.02,.99-.32,1.27-.48,.43-1.51,.18-2.03,.02-.3-.09-.63-.19-.9-.37-.33-.22-.58-.59-.85-.88-1.11-1.15-2.21-2.26-3.23-3.5-1.94-2.35-3.84-4.81-5.05-7.64s-1.46-5.92-1.53-9.04c-.18-7.78-.55-15.55,.12-23.32l-.32,.43c1.45-.36,2.94-.5,4.41-.74l-.23-.85c-1.47,.25-2.94,.49-4.41,.74-.32,.05-.44,.53-.19,.74,1.88,1.58,3.81,3.11,5.77,4.6,1.19,.9,2.41,1.76,3.54,2.73,.67,.58,1.32,1.21,1.71,2.01,.33,.69,.45,1.48,.5,2.24,.23,3.15-.05,6.36-.07,9.52-.02,2.86,.07,5.71,.04,8.57-.04,3.07-.16,6.15-.18,9.22-.01,1.67,0,3.35,.1,5.02s.2,3.32,.11,4.99c-.18,3.35-.69,6.69-.19,10.04,.03,.17,.25,.35,.43,.32,.75-.09,1.48-.22,2.21-.39,.17-.04,.34-.24,.32-.43-.48-4.41,.22-8.82,.38-13.23l-.13,.31c.37-.31,.78-.78,1.2-1.02,.34-.2,.94-.18,1.4-.26,.8-.12,1.6-.24,2.4-.34,2.95-.39,5.91-.68,8.88-.92,5.98-.49,11.97-.81,17.94-1.39,3.26-.32,6.51-.71,9.74-1.25l-.23-.85-1.19,.23c-.25,.05-.34,.32-.31,.54,.19,1.18,.06,2.47,.04,3.66-.03,1.75-.05,3.51,.06,5.25,.1,1.55,.4,5.91,3.01,4.66,.19-.09,.23-.31,.2-.5-.6-4.44,0-8.92-.23-13.37-.03-.57-.91-.57-.88,0,.24,4.54-.36,9.08,.26,13.6l.2-.5c-1.79,.85-1.74-5.02-1.76-5.84-.02-1.43,0-2.86,.03-4.29,.01-.97,.07-1.96-.09-2.92l-.31,.54,1.19-.23c.56-.11,.32-.94-.23-.85-7.85,1.32-15.82,1.74-23.76,2.33-3.91,.29-7.83,.61-11.72,1.1-.84,.11-1.68,.22-2.52,.34-.48,.07-.96,.14-1.43,.22-.39,.06-.83,.06-1.16,.28-.24,.16-.46,.39-.68,.58-.31,.26-.7,.48-.8,.88-.11,.44-.04,1-.07,1.47-.03,.57-.07,1.14-.11,1.72-.08,1.15-.18,2.3-.25,3.44-.14,2.2-.19,4.41,.05,6.6l.32-.43c-.65,.15-1.31,.27-1.98,.36l.43,.32c-.46-3.1,0-6.22,.2-9.32s-.17-6.02-.19-9.04,.1-6.13,.16-9.2-.02-5.9-.02-8.84c0-3.43,.26-6.89,.1-10.32-.09-1.84-.54-3.4-1.88-4.72-1.05-1.03-2.28-1.88-3.46-2.77-2.2-1.65-4.37-3.35-6.47-5.13l-.19,.74c1.47-.25,2.94-.49,4.41-.74,.56-.09,.32-.94-.23-.85-1.47,.24-2.96,.38-4.41,.74-.2,.05-.31,.23-.32,.43-.63,7.36-.35,14.73-.15,22.11,.09,3.32,.12,6.58,1.3,9.74,1.1,2.96,2.95,5.52,4.92,7.96,1.05,1.3,2.12,2.57,3.32,3.74,.5,.49,.96,1.18,1.55,1.55s1.38,.6,2.09,.69c.54,.06,1.16,.06,1.66-.21,.6-.33,.73-.89,.81-1.52,.26-1.87,.44-3.75,.57-5.64,.51-7.65,.06-15.31-.21-22.95-.07-2.01-.13-4.02-.15-6.04,0-.79,.02-1.56-.27-2.31s-.73-1.37-1.26-1.93c-2.53-2.71-6.26-3.82-9.01-6.23l-.19,.74c.69-.24,1.41-.39,2.14-.35l-.43-.32,.58,1.83,.85-.23c-.42-1.15-1.29-3.42,.49-3.8,.9-.2,1.9-.05,2.8,.05,1.18,.12,2.38,.28,3.57,.18,1.38-.11,2.82,.09,4.21,.11s2.77,0,4.15-.05c2.84-.1,5.68-.32,8.51-.63,1.5-.16,2.99-.35,4.48-.55,.33-.05,.89-.24,1.16,0,.19,.17,.23,.58,.26,.81,.07,.59,.04,1.19,.14,1.79,.09,.5,.86,.37,.87-.12v-1.84c-.18,.14-.36,.28-.55,.43,4.09,.71,8.02,1.99,11.99,3.18,1.87,.56,3.79,1.01,5.59,1.77,.82,.35,2.07,.9,2.22,1.82,.14,.84,.17,1.72,.25,2.57,.14,1.64,.25,3.28,.32,4.92,.09,2,.14,4.01,.1,6.01-.04,2.11-.24,4.22-.28,6.33-.13,5.34,.15,10.67,.35,16.01l.22-.38c-.27,.19-.57,.24-.87,.37-.54,.22-1.15,.43-1.74,.32l.32,.43c.03-2.76,.1-5.53-.02-8.3-.07-1.71-.19-3.49-.73-5.12-1.02-3.05-3.74-4.41-6.58-5.46-2.94-1.08-5.95-1.95-8.93-2.92-.3-.1-.67,.23-.54,.54l.03,.07,.43-.56c-8.22,.84-16.46,1.5-24.67,2.46-.23,.03-.45,.18-.44,.44,.06,2.78,.12,5.57,.19,8.35,0,.23,.2,.46,.44,.44,6.22-.41,12.42-.99,18.62-1.59,3.57-.34,7.14-.7,10.71-1.08,1.67-.18,3.33-.36,5-.54s3.3-.3,4.92-.56c.29-.05,.68-.08,.87-.33,.17-.24,.34-.71,.41-.99,.13-.56,.02-1.23,.04-1.81,.02-.41,.04-.81,.09-1.22,.28-2.62,.18-5.28,.19-7.9,0-1.7-.03-3.4-.18-5.1-.09-1.02-.2-1.94-.65-2.86-.92-1.9-2.65-2.72-4.54-3.37-4.22-1.47-8.54-2.62-12.81-3.89l.32,.43c-.07-.77-.14-1.53-.19-2.3-.04-.56-.86-.57-.88,0-.24,7.42,2.66,14.57,2.21,22-.03,.57,.85,.57,.88,0h0Z"/><path class="cls-9" d="M48.1,103.93c-.37,3.16-1.09,6.26-1.46,9.42l.32-.43c-.82,.18-1.63,.44-2.46,.56l.56,.43c.4-4.43,1.32-8.79,1.95-13.18l-.43,.32h.13c-.14-.11-.28-.22-.43-.32,.31,1.24,1.17,2.39,1.88,3.43,.32,.47,1.08,.03,.76-.45-.66-.97-1.5-2.06-1.79-3.22-.05-.19-.24-.32-.43-.32h-.13c-.17,0-.4,.14-.43,.32-.64,4.47-1.57,8.91-1.98,13.42-.03,.32,.3,.46,.56,.43,.84-.12,1.64-.38,2.46-.56,.21-.04,.3-.24,.32-.43,.37-3.16,1.09-6.26,1.46-9.42,.07-.56-.82-.56-.88,0h0Z"/></g></g></g></g></svg>